<svg width="40" height="35" viewBox="0 0 40 35" fill="none" xmlns="http://www.w3.org/2000/svg">
<g clip-path="url(#clip0_118_36)">
<path d="M11.6665 26.2498C9.83317 26.2498 8.34984 27.5623 8.34984 29.1665C8.34984 30.7707 9.83317 32.0832 11.6665 32.0832C13.4998 32.0832 14.9998 30.7707 14.9998 29.1665C14.9998 27.5623 13.4998 26.2498 11.6665 26.2498ZM1.6665 2.9165V5.83317H4.99984L10.9998 16.9019L8.74984 20.4748C8.48317 20.8832 8.33317 21.3644 8.33317 21.8748C8.33317 23.479 9.83317 24.7915 11.6665 24.7915H31.6665V21.8748H12.3665C12.1332 21.8748 11.9498 21.7144 11.9498 21.5103L11.9998 21.3353L13.4998 18.9582H25.9165C27.1665 18.9582 28.2665 18.3603 28.8332 17.4561L34.7998 7.9915C34.9332 7.78734 34.9998 7.53942 34.9998 7.2915C34.9998 6.48942 34.2498 5.83317 33.3332 5.83317H8.68317L7.1165 2.9165H1.6665ZM28.3332 26.2498C26.4998 26.2498 25.0165 27.5623 25.0165 29.1665C25.0165 30.7707 26.4998 32.0832 28.3332 32.0832C30.1665 32.0832 31.6665 30.7707 31.6665 29.1665C31.6665 27.5623 30.1665 26.2498 28.3332 26.2498Z" fill="black"/>
</g>
<defs>
<clipPath id="clip0_118_36">
<rect width="40" height="35" fill="white"/>
</clipPath>
</defs>
</svg>
