<svg width="40" height="35" viewBox="0 0 40 35" fill="none" xmlns="http://www.w3.org/2000/svg">
<path d="M28.5878 22.0126H26.781L26.1407 21.4723C28.3819 19.191 29.7313 16.2293 29.7313 13.0074C29.7313 5.82333 23.076 0 14.8656 0C6.65523 0 0 5.82333 0 13.0074C0 20.1915 6.65523 26.0149 14.8656 26.0149C18.5477 26.0149 21.9325 24.8342 24.5397 22.8731L25.1572 23.4334V25.0143L36.5923 35L40 32.0183L28.5878 22.0126ZM14.8656 22.0126C9.17095 22.0126 4.57404 17.9903 4.57404 13.0074C4.57404 8.02458 9.17095 4.00229 14.8656 4.00229C20.5603 4.00229 25.1572 8.02458 25.1572 13.0074C25.1572 17.9903 20.5603 22.0126 14.8656 22.0126Z" fill="black"/>
</svg>
